<svg id="Layer_1" data-name="Layer 1" xmlns="http://www.w3.org/2000/svg" xmlns:xlink="http://www.w3.org/1999/xlink" width="50" height="50" viewBox="0 0 50 50"><defs><style>.cls-1{fill:none;}.cls-2{fill:#fff;}.cls-3{clip-path:url(#clip-path);}.cls-4{fill:#53b6e7;}.cls-5{fill:#2c9fd9;}.cls-6{fill:#4eb95e;}.cls-7{fill:#d84127;}.cls-8{fill:#fed500;}.cls-9{fill:#fba919;}</style><clipPath id="clip-path"><rect class="cls-1" x="14.18" y="9.87" width="26.29" height="28.96"/></clipPath></defs><title>playstore</title><circle class="cls-2" cx="24.78" cy="24.78" r="23.03"/><g class="cls-3"><path class="cls-4" d="M34.47,19.8,17.34,10.21A2,2,0,0,0,15.56,10L29.93,24.34l4.54-4.54Z"/><path class="cls-4" d="M15.56,10a1.94,1.94,0,0,0-.3.13,2,2,0,0,0-1.08,1.79V36.78a2,2,0,0,0,1.08,1.8,1.94,1.94,0,0,0,.3.13L29.93,24.34,15.56,10Z"/><path class="cls-4" d="M29.93,24.34,15.56,38.71a2,2,0,0,0,1.78-.23L34.2,29.05l.28-.16-4.55-4.55Z"/><path class="cls-5" d="M14.18,24.34V36.78a2,2,0,0,0,1.08,1.8,1.94,1.94,0,0,0,.3.13L29.93,24.34Z"/><path class="cls-6" d="M17.34,10.21a2,2,0,0,0-2.08-.1L29.71,24.56l4.76-4.76L17.34,10.21Z"/><path class="cls-7" d="M29.71,24.13,15.26,38.58a2,2,0,0,0,2.08-.1L34.2,29.05l.28-.16-4.77-4.76Z"/></g><path class="cls-8" d="M40.47,24.34a2,2,0,0,0-1-1.77L34.2,19.64l-4.71,4.7,4.71,4.71,5.24-2.94a2,2,0,0,0,1-1.77Z"/><path class="cls-9" d="M39.44,26.11a2,2,0,0,0,1-1.77h-11l4.71,4.71,5.24-2.94Z"/></svg>