<svg id="Layer_1" data-name="Layer 1" xmlns="http://www.w3.org/2000/svg" viewBox="0 0 30 30"><defs><style>.cls-1{fill:none;stroke:#fff;stroke-miterlimit:10;}.cls-2{fill:#fff;}</style></defs><title>tw</title><circle class="cls-1" cx="15.23" cy="15.08" r="12.5"/><path class="cls-2" d="M9.05,10.46a9.63,9.63,0,0,0,5.72,2.84,3.61,3.61,0,0,1,1.64-3.18,2.42,2.42,0,0,1,3.28.57,7.6,7.6,0,0,0,1.87-.62,6.29,6.29,0,0,1-1.08,1.43L22,11.2l-1.42,1.53s.57,5.15-5.06,7.87c0,0-4.39,1.58-7.44-.51,0,0,3.73-.57,4.13-1.42a3.08,3.08,0,0,1-2.5-1.92l1.08-.06s-1.87-.17-2.09-2.84L10,14S8,13.47,9.05,10.46Z"/></svg>